<svg xmlns="http://www.w3.org/2000/svg" viewBox="0 0 256 256">
  <defs>
    <radialGradient id="glowBg" cx="50%" cy="50%" r="50%">
      <stop offset="0%" stop-color="#6EE7B7" stop-opacity="0.05"/>
      <stop offset="100%" stop-color="#6EE7B7" stop-opacity="0"/>
    </radialGradient>
    <linearGradient id="faceGrad" x1="48" y1="36" x2="208" y2="228">
      <stop stop-color="#111827"/>
      <stop offset="1" stop-color="#0f0f0f"/>
    </linearGradient>
  </defs>
  <ellipse cx="128" cy="140" rx="100" ry="100" fill="url(#glowBg)"/>
  <!-- Left ear - droopy -->
  <path d="M72 105 50 45l58 40" fill="#111827" stroke="#6EE7B7" stroke-width="4" stroke-linejoin="round" opacity="0.6"/>
  <!-- Right ear - droopy -->
  <path d="M184 105 206 45l-58 40" fill="#111827" stroke="#6EE7B7" stroke-width="4" stroke-linejoin="round" opacity="0.6"/>
  <!-- Face - dimmer -->
  <path d="M78 88c12-22 33-34 50-34s38 12 50 34c18 4 34 24 34 56 0 48-36 78-84 78s-84-30-84-78c0-32 16-52 34-56Z" fill="url(#faceGrad)" stroke="#6EE7B7" stroke-width="3" opacity="0.5"/>
  <!-- Eyes - horizontal lines (closed) -->
  <path d="M97 148h14M145 148h14" stroke="#6EE7B7" stroke-width="3" stroke-linecap="round" opacity="0.5"/>
  <!-- Zzz -->
  <text x="175" y="55" fill="#6EE7B7" font-size="16" font-family="sans-serif" opacity="0.4">z</text>
  <text x="190" y="42" fill="#6EE7B7" font-size="12" font-family="sans-serif" opacity="0.3">z</text>
  <text x="200" y="32" fill="#6EE7B7" font-size="8" font-family="sans-serif" opacity="0.2">z</text>
  <!-- Smile - barely there -->
  <path d="M119 166c4 4 14 4 18 0" fill="none" stroke="#6EE7B7" stroke-width="3" stroke-linecap="round" opacity="0.3"/>
</svg>
