<svg xmlns="http://www.w3.org/2000/svg" viewBox="0 0 256 256" role="img" aria-labelledby="title desc"><title id="title">Tekko sleeping</title><desc id="desc">Tekko sleeping with dim glow, circuit details, orange accent, and workflow tail.</desc><defs><radialGradient id="g" cx="50%" cy="52%" r="55%"><stop offset="0%" stop-color="#6EE7B7" stop-opacity=".08"/><stop offset="100%" stop-color="#6EE7B7" stop-opacity="0"/></radialGradient><linearGradient id="b" x1="52" y1="38" x2="205" y2="226"><stop stop-color="#111827"/><stop offset="1" stop-color="#0B0F19"/></linearGradient></defs><ellipse cx="128" cy="142" rx="108" ry="102" fill="url(#g)"/><path d="M174 171c29-7 52 14 41 37-11 23-54 18-49-9 4-22 39-10 27 7" fill="none" stroke="#6EE7B7" stroke-width="8" stroke-linecap="round" opacity=".45"/><circle cx="179" cy="171" r="5" fill="#6EE7B7" opacity=".55"/><circle cx="207" cy="187" r="5" fill="#F59E0B" opacity=".45"/><circle cx="192" cy="210" r="4" fill="#22D3EE" opacity=".35"/><path d="M73 106 45 34l62 47" fill="#111827" stroke="#6EE7B7" stroke-width="5" stroke-linejoin="round" opacity=".7"/><path d="M183 106 211 34l-62 47" fill="#111827" stroke="#6EE7B7" stroke-width="5" stroke-linejoin="round" opacity=".7"/><path d="M70 103 57 57l39 35M186 103 199 57l-39 35" fill="#6EE7B7" opacity=".1"/><path d="M92 148c8-14 23-22 36-22s28 8 36 22c17 8 25 24 25 45 0 29-25 45-61 45s-61-16-61-45c0-21 8-37 25-45Z" fill="url(#b)" stroke="#6EE7B7" stroke-width="4" opacity=".82"/><path d="M79 88c12-22 33-34 49-34s37 12 49 34c18 4 34 24 34 55 0 47-35 76-83 76s-83-29-83-76c0-31 16-51 34-55Z" fill="url(#b)" stroke="#6EE7B7" stroke-width="4" opacity=".82"/><path d="M89 119h22m34 0h22M128 91v18M101 187h54" stroke="#6EE7B7" stroke-width="3" stroke-linecap="round" opacity=".35"/><path d="M94 148h20M142 148h20" stroke="#6EE7B7" stroke-width="5" stroke-linecap="round"/><path d="M119 166c4 2 14 2 18 0" fill="none" stroke="#9CA3AF" stroke-width="4" stroke-linecap="round"/><path d="M128 181l15 21h-30l15-21Z" fill="#F59E0B" stroke="#FBBF24" stroke-width="2" opacity=".55"/><text x="178" y="72" font-family="Arial, sans-serif" font-size="24" font-weight="700" fill="#6EE7B7" opacity=".65">Z</text><text x="198" y="51" font-family="Arial, sans-serif" font-size="17" font-weight="700" fill="#6EE7B7" opacity=".4">Z</text><path d="M96 232h22m20 0h22" stroke="#334155" stroke-width="8" stroke-linecap="round"/></svg>