<svg xmlns="http://www.w3.org/2000/svg" viewBox="0 0 256 256">
  <defs>
    <radialGradient id="glowBg" cx="50%" cy="50%" r="50%">
      <stop offset="0%" stop-color="#EF4444" stop-opacity="0.12"/>
      <stop offset="100%" stop-color="#EF4444" stop-opacity="0"/>
    </radialGradient>
    <linearGradient id="faceGrad" x1="48" y1="36" x2="208" y2="228">
      <stop stop-color="#111827"/>
      <stop offset="1" stop-color="#0f0f0f"/>
    </linearGradient>
  </defs>
  <ellipse cx="128" cy="140" rx="100" ry="100" fill="url(#glowBg)"/>
  <!-- Left ear -->
  <path d="M72 105 45 34l62 47" fill="#111827" stroke="#EF4444" stroke-width="5" stroke-linejoin="round"/>
  <path d="M72 105 55 55l44 38" fill="#EF4444" opacity="0.15"/>
  <!-- Right ear -->
  <path d="M184 105 211 34l-62 47" fill="#111827" stroke="#EF4444" stroke-width="5" stroke-linejoin="round"/>
  <path d="M184 105 201 55l-44 38" fill="#EF4444" opacity="0.15"/>
  <!-- Face -->
  <path d="M78 88c12-22 33-34 50-34s38 12 50 34c18 4 34 24 34 56 0 48-36 78-84 78s-84-30-84-78c0-32 16-52 34-56Z" fill="url(#faceGrad)" stroke="#EF4444" stroke-width="4"/>
  <!-- Cheek glows - red -->
  <ellipse cx="90" cy="155" rx="18" ry="12" fill="#EF4444" opacity="0.06"/>
  <ellipse cx="166" cy="155" rx="18" ry="12" fill="#EF4444" opacity="0.06"/>
  <!-- Eyes - X shapes -->
  <path d="M96 140 112 156M112 140 96 156" stroke="#EF4444" stroke-width="5" stroke-linecap="round"/>
  <path d="M144 140 160 156M160 140 144 156" stroke="#EF4444" stroke-width="5" stroke-linecap="round"/>
  <!-- Smile - sad/frown -->
  <path d="M119 166c4 4 14 4 18 0" fill="none" stroke="#FCA5A5" stroke-width="4" stroke-linecap="round"/>
  <!-- Sweat drop -->
  <path d="M200 75c0-8-8-18-8-18s-8 10-8 18a8 8 0 0016 0Z" fill="#67E8F9" opacity="0.5"/>
</svg>
