<svg xmlns="http://www.w3.org/2000/svg" viewBox="0 0 256 256" role="img">
  <title>Tekko sleeping mascot placeholder</title>
  <defs>
    <linearGradient id="body" x1="48" y1="36" x2="208" y2="228" gradientUnits="userSpaceOnUse">
      <stop stop-color="#111827"/>
      <stop offset="1" stop-color="#0A0A0A"/>
    </linearGradient>
  </defs>
  <circle cx="128" cy="142" r="104" fill="#94A3B8" opacity="0.1"/>
  <path d="M70 105 43 34l62 45" fill="#101827" stroke="#94A3B8" stroke-width="6" stroke-linejoin="round"/>
  <path d="M186 105 213 34l-62 45" fill="#101827" stroke="#94A3B8" stroke-width="6" stroke-linejoin="round"/>
  <path d="M80 88c12-22 33-34 48-34s36 12 48 34c19 3 34 23 34 54 0 47-35 76-82 76s-82-29-82-76c0-31 15-51 34-54Z" fill="url(#body)" stroke="#94A3B8" stroke-width="5"/>
  <path d="M92 145h19M145 145h19" stroke="#CBD5E1" stroke-width="7" stroke-linecap="round"/>
  <path d="M118 166c5 4 15 4 20 0" fill="none" stroke="#CBD5E1" stroke-width="6" stroke-linecap="round"/>
  <path d="M128 178 143 199h-30l15-21Z" fill="#64748B"/>
  <path d="M188 51h28l-28 32h30M165 79h20l-20 23h22" fill="none" stroke="#94A3B8" stroke-width="7" stroke-linecap="round" stroke-linejoin="round"/>
</svg>
