<svg xmlns="http://www.w3.org/2000/svg" viewBox="0 0 256 256">
  <defs>
    <radialGradient id="glowBg" cx="50%" cy="50%" r="50%">
      <stop offset="0%" stop-color="#F59E0B" stop-opacity="0.12"/>
      <stop offset="100%" stop-color="#F59E0B" stop-opacity="0"/>
    </radialGradient>
    <linearGradient id="faceGrad" x1="48" y1="36" x2="208" y2="228">
      <stop stop-color="#111827"/>
      <stop offset="1" stop-color="#0f0f0f"/>
    </linearGradient>
  </defs>
  <ellipse cx="128" cy="140" rx="100" ry="100" fill="url(#glowBg)"/>
  <!-- Left ear -->
  <path d="M72 105 45 34l62 47" fill="#111827" stroke="#F59E0B" stroke-width="5" stroke-linejoin="round"/>
  <path d="M72 105 55 55l44 38" fill="#F59E0B" opacity="0.15"/>
  <!-- Right ear -->
  <path d="M184 105 211 34l-62 47" fill="#111827" stroke="#F59E0B" stroke-width="5" stroke-linejoin="round"/>
  <path d="M184 105 201 55l-44 38" fill="#F59E0B" opacity="0.15"/>
  <!-- Face -->
  <path d="M78 88c12-22 33-34 50-34s38 12 50 34c18 4 34 24 34 56 0 48-36 78-84 78s-84-30-84-78c0-32 16-52 34-56Z" fill="url(#faceGrad)" stroke="#F59E0B" stroke-width="4"/>
  <!-- Cheek glows - amber -->
  <ellipse cx="90" cy="155" rx="18" ry="12" fill="#F59E0B" opacity="0.06"/>
  <ellipse cx="166" cy="155" rx="18" ry="12" fill="#F59E0B" opacity="0.06"/>
  <!-- Eyes - exclamation/triangle -->
  <path d="M95 142 104 142 102 153 97 153Z" fill="#F59E0B"/>
  <path d="M152 142 161 142 159 153 154 153Z" fill="#F59E0B"/>
  <!-- Smile - flat/concerned -->
  <path d="M119 166c4 4 14 4 18 0" fill="none" stroke="#FDE68A" stroke-width="4" stroke-linecap="round"/>
</svg>
