<svg xmlns="http://www.w3.org/2000/svg" viewBox="0 0 256 256" role="img" aria-labelledby="title desc"><title id="title">Tekko error</title><desc id="desc">Tekko error state with red expression, circuit details, orange accent, and workflow tail.</desc><defs><radialGradient id="g" cx="50%" cy="52%" r="55%"><stop offset="0%" stop-color="#EF4444" stop-opacity=".2"/><stop offset="100%" stop-color="#EF4444" stop-opacity="0"/></radialGradient><linearGradient id="b" x1="52" y1="38" x2="205" y2="226"><stop stop-color="#111827"/><stop offset="1" stop-color="#0B0F19"/></linearGradient></defs><ellipse cx="128" cy="142" rx="108" ry="102" fill="url(#g)"/><path d="M174 171c29-7 52 14 41 37-11 23-54 18-49-9 4-22 39-10 27 7" fill="none" stroke="#EF4444" stroke-width="8" stroke-linecap="round"/><circle cx="179" cy="171" r="5" fill="#EF4444"/><circle cx="207" cy="187" r="5" fill="#F59E0B"/><circle cx="192" cy="210" r="4" fill="#22D3EE" opacity=".5"/><path d="M73 106 45 34l62 47" fill="#111827" stroke="#EF4444" stroke-width="5" stroke-linejoin="round"/><path d="M183 106 211 34l-62 47" fill="#111827" stroke="#EF4444" stroke-width="5" stroke-linejoin="round"/><path d="M70 103 57 57l39 35M186 103 199 57l-39 35" fill="#EF4444" opacity=".16"/><path d="M92 148c8-14 23-22 36-22s28 8 36 22c17 8 25 24 25 45 0 29-25 45-61 45s-61-16-61-45c0-21 8-37 25-45Z" fill="url(#b)" stroke="#EF4444" stroke-width="4"/><path d="M79 88c12-22 33-34 49-34s37 12 49 34c18 4 34 24 34 55 0 47-35 76-83 76s-83-29-83-76c0-31 16-51 34-55Z" fill="url(#b)" stroke="#EF4444" stroke-width="4"/><path d="M89 119h22m34 0h22M128 91v18M101 187h54" stroke="#F87171" stroke-width="3" stroke-linecap="round" opacity=".75"/><path d="M96 140l16 16m0-16-16 16M144 140l16 16m0-16-16 16" stroke="#EF4444" stroke-width="5" stroke-linecap="round"/><path d="M119 171c4-4 14-4 18 0" fill="none" stroke="#E5E7EB" stroke-width="4" stroke-linecap="round"/><path d="M128 181l15 21h-30l15-21Z" fill="#F59E0B" stroke="#FBBF24" stroke-width="2"/><path d="M82 83h18M156 83h18" stroke="#EF4444" stroke-width="4" stroke-linecap="round"><animate attributeName="opacity" values="1;.25;1" dur=".8s" repeatCount="indefinite"/></path><path d="M96 232h22m20 0h22" stroke="#334155" stroke-width="8" stroke-linecap="round"/></svg>