<svg xmlns="http://www.w3.org/2000/svg" viewBox="0 0 256 256" role="img" aria-labelledby="title desc"><title id="title">Tekko avatar</title><desc id="desc">Circular avatar export for Tekko, Tekup Digital's cyber-fennec mascot.</desc><defs><radialGradient id="bg" cx="50%" cy="42%" r="68%"><stop offset="0%" stop-color="#22D3EE" stop-opacity=".22"/><stop offset="58%" stop-color="#10B981" stop-opacity=".16"/><stop offset="100%" stop-color="#0B0F19"/></radialGradient><linearGradient id="body" x1="60" y1="42" x2="196" y2="220"><stop stop-color="#111827"/><stop offset="1" stop-color="#020617"/></linearGradient></defs><circle cx="128" cy="128" r="124" fill="url(#bg)"/><circle cx="128" cy="128" r="116" fill="none" stroke="#10B981" stroke-width="5" opacity=".8"/><path d="M76 112 48 38l63 50" fill="#111827" stroke="#22D3EE" stroke-width="5" stroke-linejoin="round"/><path d="M180 112 208 38l-63 50" fill="#111827" stroke="#22D3EE" stroke-width="5" stroke-linejoin="round"/><path d="M77 104 61 58l39 35M179 104 195 58l-39 35" fill="#22D3EE" opacity=".18"/><path d="M80 91c11-22 32-35 48-35s37 13 48 35c20 5 35 27 35 59 0 48-36 76-83 76s-83-28-83-76c0-32 15-54 35-59Z" fill="url(#body)" stroke="#10B981" stroke-width="5"/><path d="M91 121h22m30 0h22M128 92v18M102 184h52" stroke="#22D3EE" stroke-width="3" stroke-linecap="round" opacity=".85"/><circle cx="104" cy="149" r="11" fill="#22D3EE"/><circle cx="152" cy="149" r="11" fill="#22D3EE"/><circle cx="100" cy="145" r="3" fill="#fff" opacity=".65"/><circle cx="148" cy="145" r="3" fill="#fff" opacity=".65"/><path d="M119 168c4 4 14 4 18 0" fill="none" stroke="#E5E7EB" stroke-width="4" stroke-linecap="round"/><path d="M128 181l15 21h-30l15-21Z" fill="#F59E0B" stroke="#FBBF24" stroke-width="2"/><path d="M180 172c24-4 42 15 31 32-11 17-43 11-37-9 4-15 28-6 19 6" fill="none" stroke="#10B981" stroke-width="7" stroke-linecap="round"/><circle cx="181" cy="172" r="4" fill="#22D3EE"/><circle cx="208" cy="188" r="4" fill="#F59E0B"/></svg>