<svg xmlns="http://www.w3.org/2000/svg" viewBox="0 0 256 256">
  <defs>
    <radialGradient id="glowBg" cx="50%" cy="50%" r="50%">
      <stop offset="0%" stop-color="#10B981" stop-opacity="0.10"/>
      <stop offset="100%" stop-color="#10B981" stop-opacity="0"/>
    </radialGradient>
    <linearGradient id="faceGrad" x1="48" y1="36" x2="208" y2="228">
      <stop stop-color="#111827"/>
      <stop offset="1" stop-color="#0f0f0f"/>
    </linearGradient>
  </defs>
  <ellipse cx="128" cy="140" rx="100" ry="100" fill="url(#glowBg)"/>
  <!-- Left ear -->
  <path d="M72 105 45 34l62 47" fill="#111827" stroke="#10B981" stroke-width="5" stroke-linejoin="round"/>
  <path d="M72 105 55 55l44 38" fill="#10B981" opacity="0.15"/>
  <!-- Right ear -->
  <path d="M184 105 211 34l-62 47" fill="#111827" stroke="#10B981" stroke-width="5" stroke-linejoin="round"/>
  <path d="M184 105 201 55l-44 38" fill="#10B981" opacity="0.15"/>
  <!-- Face -->
  <path d="M78 88c12-22 33-34 50-34s38 12 50 34c18 4 34 24 34 56 0 48-36 78-84 78s-84-30-84-78c0-32 16-52 34-56Z" fill="url(#faceGrad)" stroke="#10B981" stroke-width="4"/>
  <!-- Cheek glows -->
  <ellipse cx="90" cy="155" rx="18" ry="12" fill="#10B981" opacity="0.05"/>
  <ellipse cx="166" cy="155" rx="18" ry="12" fill="#10B981" opacity="0.05"/>
  <!-- Eyes - circles -->
  <circle cx="104" cy="148" r="10" fill="#22D3EE"/>
  <circle cx="152" cy="148" r="10" fill="#22D3EE"/>
  <!-- Eye shine -->
  <circle cx="100" cy="144" r="3" fill="#ffffff" opacity="0.5"/>
  <circle cx="148" cy="144" r="3" fill="#ffffff" opacity="0.5"/>
  <!-- Smile -->
  <path d="M119 166c4 4 14 4 18 0" fill="none" stroke="#E5E7EB" stroke-width="4" stroke-linecap="round"/>
</svg>
