<svg xmlns="http://www.w3.org/2000/svg" viewBox="0 0 256 256" role="img">
  <title>Tekko error mascot placeholder</title>
  <defs>
    <linearGradient id="body" x1="48" y1="36" x2="208" y2="228" gradientUnits="userSpaceOnUse">
      <stop stop-color="#111827"/>
      <stop offset="1" stop-color="#0A0A0A"/>
    </linearGradient>
  </defs>
  <circle cx="128" cy="142" r="104" fill="#EF4444" opacity="0.12"/>
  <path d="M70 105 43 34l62 45" fill="#101827" stroke="#F87171" stroke-width="6" stroke-linejoin="round"/>
  <path d="M186 105 213 34l-62 45" fill="#101827" stroke="#F87171" stroke-width="6" stroke-linejoin="round"/>
  <path d="M80 88c12-22 33-34 48-34s36 12 48 34c19 3 34 23 34 54 0 47-35 76-82 76s-82-29-82-76c0-31 15-51 34-54Z" fill="url(#body)" stroke="#F87171" stroke-width="5"/>
  <path d="m92 137 18 18M110 137l-18 18M146 137l18 18M164 137l-18 18" stroke="#FCA5A5" stroke-width="7" stroke-linecap="round"/>
  <path d="M116 170c8-6 16-6 24 0" fill="none" stroke="#E5E7EB" stroke-width="6" stroke-linecap="round"/>
  <path d="M128 178 143 199h-30l15-21Z" fill="#F59E0B"/>
  <circle cx="205" cy="190" r="28" fill="#EF4444" stroke="#FCA5A5" stroke-width="6"/>
  <path d="m194 179 22 22M216 179l-22 22" stroke="#111827" stroke-width="7" stroke-linecap="round"/>
</svg>
